<svg xmlns="http://www.w3.org/2000/svg" xml:space="preserve" viewBox="0 0 512 512">
  <style>
    /* Escala Neutra PHFLIX */
    .gray-base { fill: #4D4D4D; }    /* Cinza principal (substitui o roxo) */
    .gray-shadow { fill: #1A1A1A; }  /* Sombra interna para profundidade */
    .gray-light { fill: #FFFFFF; }   /* Brilho superior */
  </style>

  <path d="M256 512c141.4 0 256-114.6 256-256S397.4 0 256 0 0 114.6 0 256s114.6 256 256 256m170.7-234.7c0 82.5-66.9 149.3-149.3 149.3S128 359.8 128 277.3c0-15.3 2.3-30.1 6.6-44 11.7 25.9 37.8 44 68.1 44 41.2 0 74.7-33.4 74.7-74.7 0-30.3-18-56.4-44-68.1 13.9-4.3 28.7-6.6 44-6.6 82.4.1 149.3 67 149.3 149.4" 
    style="fill-rule:evenodd;clip-rule:evenodd;fill:#4D4D4D"/>

  <path d="M426.7 277.3c0 82.5-66.9 149.3-149.3 149.3-80.7 0-146.5-64.1-149.2-144.1-.1 1.8-.1 3.6-.1 5.4 0 88.4 71.6 160 160 160s160-71.6 160-160-71.6-160-160-160c-1.8 0-3.6 0-5.4.1 79.9 2.9 144 68.6 144 149.3" 
    style="opacity:.3;fill-rule:evenodd;clip-rule:evenodd;fill:#000000"/>

  <path d="M256 64C150 64 64 150 64 256c0 11.8-9.6 21.3-21.3 21.3-11.8 0-21.3-9.6-21.3-21.3-.1-129.6 105-234.7 234.6-234.7 11.8 0 21.3 9.6 21.3 21.3 0 11.8-9.5 21.4-21.3 21.4" 
    style="fill-rule:evenodd;clip-rule:evenodd;fill:#FFFFFF;opacity:.4"/>
</svg>
